M48
; DRILL file {KiCad 9.0.5} date 2025-10-26T17:33:26-0500
; FORMAT={-:-/ absolute / inch / decimal}
; #@! TF.CreationDate,2025-10-26T17:33:26-05:00
; #@! TF.GenerationSoftware,Kicad,Pcbnew,9.0.5
; #@! TF.FileFunction,Plated,1,2,PTH
FMAT,2
INCH
; #@! TA.AperFunction,Plated,PTH,ComponentDrill
T1C0.0315
%
G90
G05
T1
X4.8687Y-3.0562
X4.8687Y-3.1562
X4.8687Y-3.2563
X4.8687Y-3.3562
X4.8687Y-3.4562
X4.8687Y-3.5562
X4.8687Y-3.6562
X4.8687Y-3.7563
X4.8687Y-3.8562
X4.8687Y-3.9562
X4.8687Y-4.0562
X4.8687Y-4.1562
X4.8687Y-4.2562
X4.8687Y-4.3563
X4.9188Y-3.5063
X4.9188Y-3.6062
X4.9188Y-3.7062
X4.9188Y-3.8062
X4.9188Y-3.9062
X5.0187Y-3.4062
X5.0187Y-3.5063
X5.0187Y-3.6062
X5.0187Y-3.7062
X5.0187Y-3.8062
X5.0187Y-3.9062
X5.0187Y-4.0062
X5.1187Y-3.4062
X5.1187Y-3.5063
X5.1187Y-3.9062
X5.1187Y-4.0062
X5.2188Y-3.4062
X5.2188Y-3.5063
X5.2188Y-3.9062
X5.2188Y-4.0062
X5.3187Y-3.4062
X5.3187Y-3.5063
X5.3187Y-3.6062
X5.3187Y-3.7062
X5.3187Y-3.8062
X5.3187Y-3.9062
X5.3187Y-4.0062
X5.4188Y-3.5063
X5.4188Y-3.6062
X5.4188Y-3.7062
X5.4188Y-3.8062
X5.4188Y-3.9062
X5.4688Y-3.0562
X5.4688Y-3.1562
X5.4688Y-3.2563
X5.4688Y-3.3562
X5.4688Y-3.4562
X5.4688Y-3.5562
X5.4688Y-3.6562
X5.4688Y-3.7563
X5.4688Y-3.8562
X5.4688Y-3.9562
X5.4688Y-4.0562
X5.4688Y-4.1562
X5.4688Y-4.2562
X5.4688Y-4.3563
M30
